<svg width="48" height="48" viewBox="0 0 48 48" fill="none" xmlns="http://www.w3.org/2000/svg">
<path d="M33.5 8C34.6403 7.99986 35.738 8.43259 36.5715 9.21074C37.405 9.98889 37.912 11.0544 37.99 12.192L38 12.5V35C37.9995 35.2499 38.0927 35.4909 38.261 35.6756C38.4294 35.8602 38.6608 35.9752 38.9096 35.9977C39.1585 36.0203 39.4068 35.9489 39.6057 35.7976C39.8045 35.6462 39.9395 35.4259 39.984 35.18L40 35V14.028C41.0439 14.1447 42.0141 14.6229 42.7424 15.3798C43.4708 16.1366 43.9114 17.1244 43.988 18.172L44 18.5V33.5C44.0001 35.1603 43.3649 36.7577 42.2247 37.9645C41.0844 39.1713 39.5256 39.896 37.868 39.99L37.5 40H10.5C8.83972 40.0001 7.24234 39.3649 6.03554 38.2247C4.82873 37.0844 4.104 35.5256 4.01 33.868L4 33.5V12.5C3.99986 11.3597 4.43259 10.262 5.21074 9.42849C5.98889 8.59503 7.05442 8.08804 8.192 8.01L8.5 8H33.5ZM18.496 22H11.496C11.0982 22 10.7166 22.158 10.4353 22.4393C10.154 22.7206 9.996 23.1022 9.996 23.5V30.5C9.996 31.328 10.668 32 11.496 32H18.496C18.8938 32 19.2754 31.842 19.5567 31.5607C19.838 31.2794 19.996 30.8978 19.996 30.5V23.5C19.996 23.1022 19.838 22.7206 19.5567 22.4393C19.2754 22.158 18.8938 22 18.496 22ZM30.504 29H25.508L25.304 29.014C24.9275 29.0658 24.5847 29.2586 24.3449 29.5534C24.105 29.8482 23.986 30.2231 24.0119 30.6022C24.0379 30.9814 24.2067 31.3366 24.4844 31.5961C24.7621 31.8555 25.128 31.9999 25.508 32H30.504L30.708 31.986C31.0845 31.9342 31.4273 31.7414 31.6671 31.4466C31.907 31.1518 32.026 30.7769 32.0001 30.3978C31.9741 30.0186 31.8053 29.6634 31.5276 29.4039C31.2499 29.1445 30.884 29.0001 30.504 29ZM16.996 25V29H12.996V25H16.996ZM30.5 22L25.504 22.01L25.3 22.022C24.9198 22.0701 24.5725 22.2619 24.3293 22.558C24.086 22.8541 23.9654 23.232 23.992 23.6143C24.0186 23.9966 24.1905 24.3541 24.4724 24.6137C24.7543 24.8732 25.1248 25.015 25.508 25.01L30.506 25L30.708 24.986C31.0847 24.9342 31.4276 24.7412 31.6675 24.4462C31.9073 24.1512 32.0262 23.7761 32 23.3968C31.9738 23.0174 31.8046 22.6622 31.5265 22.4029C31.2484 22.1436 30.8822 21.9996 30.502 22M30.504 15.008H11.496L11.292 15.022C10.9155 15.0738 10.5727 15.2666 10.3329 15.5614C10.093 15.8562 9.97404 16.2311 9.99995 16.6102C10.0259 16.9894 10.1947 17.3446 10.4724 17.6041C10.7501 17.8635 11.116 18.0079 11.496 18.008H30.504L30.708 17.996C31.0877 17.9478 31.4347 17.7563 31.6778 17.4607C31.9209 17.165 32.0418 16.7876 32.0158 16.4058C31.9897 16.0239 31.8186 15.6664 31.5376 15.4065C31.2565 15.1467 30.8868 15.0041 30.504 15.008Z" fill="black"/>
</svg>
