<svg width="48" height="48" viewBox="0 0 48 48" fill="none" xmlns="http://www.w3.org/2000/svg">
<path d="M14 36C13.4333 36 12.9587 35.808 12.576 35.424C12.1933 35.04 12.0013 34.5653 12 34V30H38V12H42C42.5667 12 43.042 12.192 43.426 12.576C43.81 12.96 44.0013 13.4347 44 14V44L36 36H14ZM4 34V6C4 5.43333 4.192 4.95867 4.576 4.576C4.96 4.19333 5.43467 4.00133 6 4H32C32.5667 4 33.042 4.192 33.426 4.576C33.81 4.96 34.0013 5.43467 34 6V24C34 24.5667 33.808 25.042 33.424 25.426C33.04 25.81 32.5653 26.0013 32 26H12L4 34Z" fill="black"/>
</svg>
