<svg width="90" height="90" viewBox="0 0 90 90" fill="none" xmlns="http://www.w3.org/2000/svg">
<path d="M73.5 78.75L49.875 55.125C48 56.625 45.8437 57.8125 43.4062 58.6875C40.9687 59.5625 38.375 60 35.625 60C28.8125 60 23.0475 57.64 18.33 52.92C13.6125 48.2 11.2525 42.435 11.25 35.625C11.25 28.8125 13.61 23.0475 18.33 18.33C23.05 13.6125 28.815 11.2525 35.625 11.25C42.4375 11.25 48.2037 13.61 52.9237 18.33C57.6437 23.05 60.0025 28.815 60 35.625C60 38.375 59.5625 40.9687 58.6875 43.4062C57.8125 45.8437 56.625 48 55.125 49.875L78.75 73.5L73.5 78.75ZM35.625 52.5C40.3125 52.5 44.2975 50.86 47.58 47.58C50.8625 44.3 52.5025 40.315 52.5 35.625C52.5 30.9375 50.86 26.9538 47.58 23.6738C44.3 20.3938 40.315 18.7525 35.625 18.75C30.9375 18.75 26.9538 20.3913 23.6738 23.6738C20.3938 26.9563 18.7525 30.94 18.75 35.625C18.75 40.3125 20.3913 44.2975 23.6738 47.58C26.9563 50.8625 30.94 52.5025 35.625 52.5Z" fill="#EB8258"/>
</svg>
