<svg width="48" height="48" viewBox="0 0 48 48" fill="none" xmlns="http://www.w3.org/2000/svg">
<path d="M14 18V14H42V18H14ZM14 26V22H42V26H14ZM14 34V30H42V34H14ZM8 18C7.43333 18 6.95867 17.808 6.576 17.424C6.19333 17.04 6.00133 16.5653 6 16C6 15.4333 6.192 14.9587 6.576 14.576C6.96 14.1933 7.43467 14.0013 8 14C8.56667 14 9.042 14.192 9.426 14.576C9.81 14.96 10.0013 15.4347 10 16C10 16.5667 9.808 17.042 9.424 17.426C9.04 17.81 8.56533 18.0013 8 18ZM8 26C7.43333 26 6.95867 25.808 6.576 25.424C6.19333 25.04 6.00133 24.5653 6 24C6 23.4333 6.192 22.9587 6.576 22.576C6.96 22.1933 7.43467 22.0013 8 22C8.56667 22 9.042 22.192 9.426 22.576C9.81 22.96 10.0013 23.4347 10 24C10 24.5667 9.808 25.042 9.424 25.426C9.04 25.81 8.56533 26.0013 8 26ZM8 34C7.43333 34 6.95867 33.808 6.576 33.424C6.19333 33.04 6.00133 32.5653 6 32C6 31.4333 6.192 30.9587 6.576 30.576C6.96 30.1933 7.43467 30.0013 8 30C8.56667 30 9.042 30.192 9.426 30.576C9.81 30.96 10.0013 31.4347 10 32C10 32.5667 9.808 33.042 9.424 33.426C9.04 33.81 8.56533 34.0013 8 34Z" fill="black"/>
</svg>
