<svg width="48" height="48" viewBox="0 0 48 48" fill="none" xmlns="http://www.w3.org/2000/svg">
<path d="M35.32 22.4C34.86 21.8 34.3 21.28 33.78 20.76C32.44 19.56 30.92 18.7 29.64 17.44C26.66 14.52 26 9.7 27.9 6C26 6.46 24.34 7.5 22.92 8.64C17.74 12.8 15.7 20.14 18.14 26.44C18.22 26.64 18.3 26.84 18.3 27.1C18.3 27.54 18 27.94 17.6 28.1C17.14 28.3 16.66 28.18 16.28 27.86C16.1658 27.7656 16.0707 27.6502 16 27.52C13.74 24.66 13.38 20.56 14.9 17.28C11.56 20 9.73998 24.6 9.99998 28.94C10.12 29.94 10.24 30.94 10.58 31.94C10.86 33.14 11.4 34.34 12 35.4C14.16 38.86 17.9 41.34 21.92 41.84C26.2 42.38 30.78 41.6 34.06 38.64C37.72 35.32 39 30 37.12 25.44L36.86 24.92C36.44 24 35.32 22.4 35.32 22.4ZM29 35C28.44 35.48 27.52 36 26.8 36.2C24.56 37 22.32 35.88 21 34.56C23.38 34 24.8 32.24 25.22 30.46C25.56 28.86 24.92 27.54 24.66 26C24.42 24.52 24.46 23.26 25 21.88C25.38 22.64 25.78 23.4 26.26 24C27.8 26 30.22 26.88 30.74 29.6C30.82 29.88 30.86 30.16 30.86 30.46C30.92 32.1 30.2 33.9 29 35Z" fill="black"/>
</svg>
