<svg width="33" height="31" viewBox="0 0 33 31" fill="none" xmlns="http://www.w3.org/2000/svg">
<path d="M11.625 29.5H3.5C3.06902 29.5 2.6557 29.3288 2.35095 29.024C2.0462 28.7193 1.875 28.306 1.875 27.875C1.875 24.625 7.36425 19.9011 8.375 18.125C6.75 18.125 1.875 17.3125 1.875 14.875C1.875 11.625 8.375 9.1875 11.625 8.375C11.625 5.9375 12.4375 1.875 16.5 1.875C20.5625 1.875 21.375 5.9375 21.375 8.375C24.625 9.1875 31.125 11.625 31.125 14.875C31.125 17.3125 26.25 18.125 24.625 18.125C25.6357 19.9011 31.125 24.625 31.125 27.875C31.125 28.306 30.9538 28.7193 30.649 29.024C30.3443 29.3288 29.931 29.5 29.5 29.5H21.375C19.75 29.5 18.125 23 16.5 23C14.875 23 13.25 29.5 11.625 29.5Z" stroke="#3F3A60" stroke-width="2" stroke-linecap="round" stroke-linejoin="round"/>
</svg>
