<svg width="48" height="48" viewBox="0 0 48 48" fill="none" xmlns="http://www.w3.org/2000/svg">
<g clip-path="url(#clip0_16_469)">
<path d="M4.19399 24C7.07599 32.16 14.858 38 24 38C33.14 38 40.92 32.16 43.804 24C40.922 15.84 33.14 10 24 10C14.86 10 7.07599 15.84 4.19399 24ZM0.177995 23.392C3.39999 13.308 12.842 6 24 6C35.16 6 44.604 13.308 47.82 23.392L48.016 24L47.822 24.608C44.6 34.692 35.156 42 24 42C12.84 42 3.39599 34.692 0.179995 24.608L-0.0180054 24L0.177995 23.392ZM24 18C22.4087 18 20.8826 18.6321 19.7574 19.7574C18.6321 20.8826 18 22.4087 18 24C18 25.5913 18.6321 27.1174 19.7574 28.2426C20.8826 29.3679 22.4087 30 24 30C25.5913 30 27.1174 29.3679 28.2426 28.2426C29.3679 27.1174 30 25.5913 30 24C30 22.4087 29.3679 20.8826 28.2426 19.7574C27.1174 18.6321 25.5913 18 24 18ZM14 24C14 21.3478 15.0536 18.8043 16.9289 16.9289C18.8043 15.0536 21.3478 14 24 14C26.6522 14 29.1957 15.0536 31.0711 16.9289C32.9464 18.8043 34 21.3478 34 24C34 26.6522 32.9464 29.1957 31.0711 31.0711C29.1957 32.9464 26.6522 34 24 34C21.3478 34 18.8043 32.9464 16.9289 31.0711C15.0536 29.1957 14 26.6522 14 24Z" fill="black"/>
</g>
<defs>
<clipPath id="clip0_16_469">
<rect width="48" height="48" fill="white"/>
</clipPath>
</defs>
</svg>
